<svg width="630" height="648" viewBox="0 0 630 648" fill="none" xmlns="http://www.w3.org/2000/svg">
<g opacity="0.8">
<path fill-rule="evenodd" clip-rule="evenodd" d="M462.878 223.858C451.899 279.947 397.759 308.092 356.053 306.443C351.638 306.268 348.2 302.548 348.375 298.133C348.55 293.718 352.27 290.281 356.685 290.455C392.409 291.868 438.052 267.399 447.176 220.784C448.025 216.448 452.228 213.621 456.564 214.47C460.9 215.319 463.727 219.522 462.878 223.858Z" fill="#A4CDFF"/>
<path fill-rule="evenodd" clip-rule="evenodd" d="M356.053 306.443C397.76 308.092 451.899 279.947 462.878 223.858C463.134 222.55 463.056 221.255 462.703 220.061C450.241 273.881 397.459 300.854 356.605 299.238C353.384 299.11 350.684 297.096 349.526 294.301C348.845 295.423 348.431 296.728 348.375 298.133C348.2 302.548 351.638 306.268 356.053 306.443Z" fill="#80B9FF"/>
<path d="M461.897 223.666C451.034 279.161 397.427 307.078 356.092 305.444C352.229 305.291 349.221 302.035 349.374 298.172C349.527 294.309 352.782 291.302 356.645 291.454C392.746 292.882 438.917 268.181 448.157 220.976C448.9 217.182 452.578 214.709 456.372 215.451C460.166 216.194 462.639 219.872 461.897 223.666Z" stroke="#002755" stroke-width="2" stroke-linecap="round" stroke-linejoin="round"/>
<path d="M455.027 222.321C452.748 233.965 448.42 244.322 442.638 253.359" stroke="#002755" stroke-width="16" stroke-linecap="round"/>
<path d="M478.582 205.089C478.582 207.43 478.081 209.653 477.181 211.659C474.67 217.252 469.051 221.148 462.523 221.148C453.653 221.148 446.464 213.958 446.464 205.089C446.464 198.42 450.53 192.7 456.318 190.273C458.227 189.472 460.323 189.03 462.523 189.03" stroke="#002755" stroke-width="11.6792" stroke-linecap="round"/>
<path d="M462.726 188C457.545 188 452.936 190.454 450 194.263" stroke="white" stroke-opacity="0.6" stroke-width="4" stroke-linecap="round" style="mix-blend-mode:overlay"/>
<circle cx="351.724" cy="297.886" r="16" transform="rotate(-150 351.724 297.886)" fill="#002755"/>
<path d="M368.744 433.482L391.926 427.271C408.347 422.871 427.089 417.476 422.528 400.452C417.966 383.428 373.476 378.375 351.801 377.976" stroke="#A4CDFF" stroke-width="16" stroke-linecap="round"/>
<path fill-rule="evenodd" clip-rule="evenodd" d="M430.891 409.283C428.658 413.68 425.136 416.899 421.469 419.293C414.028 424.15 403.9 426.879 395.997 428.997L372.814 435.208C368.547 436.352 364.16 433.819 363.017 429.551C362.892 429.087 362.811 428.621 362.771 428.158C361.042 430.103 360.293 432.851 361.017 435.553C362.16 439.821 366.547 442.353 370.814 441.21L393.997 434.998C401.9 432.88 412.028 430.151 419.469 425.294C423.334 422.771 427.037 419.331 429.242 414.562C430.026 412.866 430.573 411.103 430.891 409.283ZM415.116 404.015C415.048 403.56 414.945 403.064 414.8 402.523C414.489 401.361 413.126 399.268 408.702 396.8C404.458 394.432 398.586 392.4 391.723 390.76C378.051 387.494 362.12 386.167 351.654 385.975C347.236 385.894 343.721 382.247 343.802 377.829C343.839 375.838 344.599 374.03 345.829 372.653C346.167 376.691 349.514 379.897 353.654 379.974C364.12 380.166 380.051 381.493 393.723 384.759C400.586 386.399 406.458 388.431 410.702 390.799C415.126 393.267 416.489 395.36 416.8 396.521C417.533 399.255 417.189 400.828 416.718 401.848C416.413 402.508 415.911 403.236 415.116 404.015Z" fill="#80B9FF"/>
<path d="M391.926 427.271L368.744 433.482C368.744 433.482 370.92 441.604 373.144 449.903" stroke="#002755" stroke-width="16" stroke-linecap="round" stroke-linejoin="round"/>
<path fill-rule="evenodd" clip-rule="evenodd" d="M416.498 382.828C422.377 386.108 428.285 391.03 430.255 398.381C431.803 404.16 431.515 409.645 429.241 414.562C427.037 419.331 423.334 422.771 419.468 425.294C412.028 430.151 401.9 432.88 393.997 434.998L370.814 441.21C366.547 442.353 362.16 439.82 361.016 435.553C359.873 431.285 362.406 426.898 366.673 425.755L389.855 419.543C398.373 417.261 405.826 415.093 410.722 411.896C413.024 410.393 414.178 409.017 414.718 407.849C415.189 406.83 415.533 405.256 414.8 402.523C414.489 401.361 413.126 399.268 408.702 396.8C404.458 394.432 398.586 392.4 391.722 390.76C378.051 387.494 362.12 386.167 351.653 385.975C347.236 385.894 343.721 382.247 343.802 377.829C343.883 373.412 347.53 369.896 351.948 369.977C363.156 370.184 380.307 371.583 395.441 375.198C402.979 377 410.44 379.448 416.498 382.828Z" stroke="#002755" stroke-width="2" stroke-linecap="round"/>
<path d="M308 381C308 430 304 460.5 232.5 522.5" stroke="#A4CDFF" stroke-width="16" stroke-linecap="round"/>
<path fill-rule="evenodd" clip-rule="evenodd" d="M313.661 375.347C312.213 373.897 310.211 373 308 373C303.582 373 300 376.582 300 381C300 405.345 298.958 423.707 289.801 443.519C280.565 463.501 262.683 485.739 227.259 516.456C223.921 519.35 223.561 524.403 226.456 527.741C228.593 530.206 231.907 531.047 234.839 530.153C234.707 530.021 234.58 529.884 234.456 529.741C231.561 526.403 231.921 521.35 235.259 518.456C270.683 487.739 288.565 465.501 297.801 445.519C306.958 425.707 308 407.345 308 383C308 379.395 310.384 376.348 313.661 375.347Z" fill="#80B9FF"/>
<path fill-rule="evenodd" clip-rule="evenodd" d="M308 373C312.418 373 316 376.582 316 381C316 405.655 315.042 427.043 304.324 450.231C293.686 473.249 273.817 497.261 237.741 528.544C234.403 531.439 229.351 531.079 226.456 527.741C223.561 524.403 223.921 519.35 227.259 516.456C262.683 485.739 280.565 463.501 289.801 443.519C298.958 423.707 300 405.345 300 381C300 376.582 303.582 373 308 373Z" stroke="#002755" stroke-width="2" stroke-linecap="round"/>
<path d="M256.403 500.5C249.419 507.401 241.493 514.701 232.5 522.5L234 546.5" stroke="#002755" stroke-width="16" stroke-linecap="round" stroke-linejoin="round"/>
<path d="M282.974 309C282.974 287.446 300.447 269.973 322 269.973C343.554 269.973 361.027 287.446 361.027 309V357C361.027 378.554 343.554 396.027 322 396.027C300.447 396.027 282.974 378.554 282.974 357V309Z" fill="#A4CDFF" stroke="#002755" stroke-width="1.94654"/>
<path fill-rule="evenodd" clip-rule="evenodd" d="M322 269C299.909 269 282 286.909 282 309V357C282 379.091 299.909 397 322 397C324.388 397 326.728 396.791 329 396.39C310.247 393.079 296 376.703 296 357V309C296 289.297 310.247 272.921 329 269.61C326.728 269.209 324.388 269 322 269Z" fill="#80B9FF"/>
<path d="M283 309C283 287.461 300.461 270 322 270C343.54 270 361 287.461 361 309V357C361 378.539 343.54 396 322 396C300.461 396 283 378.539 283 357V309Z" stroke="#002755" stroke-width="2"/>
<path d="M314 329C314 331.209 315.791 333 318 333H326C328.21 333 330 331.209 330 329V325C330 322.791 328.21 321 326 321H318C315.791 321 314 322.791 314 325V329Z" fill="#80B9FF"/>
<path d="M314 313C314 315.209 315.791 317 318 317H326C328.21 317 330 315.209 330 313V309C330 306.791 328.21 305 326 305H318C315.791 305 314 306.791 314 309V313Z" fill="#80B9FF"/>
<path d="M334 313C334 315.209 335.791 317 338 317H346C348.21 317 350 315.209 350 313V309C350 306.791 348.21 305 346 305H338C335.791 305 334 306.791 334 309V313Z" fill="#80B9FF"/>
<path d="M334 329C334 331.209 335.791 333 338 333H346C348.21 333 350 331.209 350 329V325C350 322.791 348.21 321 346 321H338C335.791 321 334 322.791 334 325V329Z" fill="#80B9FF"/>
<path d="M313.974 328C313.974 329.672 315.329 331.027 317 331.027H325C326.672 331.027 328.027 329.672 328.027 328V324C328.027 322.328 326.672 320.973 325 320.973H317C315.329 320.973 313.974 322.328 313.974 324V328Z" fill="#002755" stroke="#002755" stroke-width="1.94654"/>
<path d="M314 312C314 313.657 315.344 315 317 315H325C326.657 315 328 313.657 328 312V308C328 306.343 326.657 305 325 305H317C315.344 305 314 306.343 314 308V312Z" fill="#0068E4" stroke="#002755" stroke-width="2"/>
<path d="M334 328C334 329.657 335.344 331 337 331H345C346.657 331 348 329.657 348 328V324C348 322.343 346.657 321 345 321H337C335.344 321 334 322.343 334 324V328Z" fill="#0068E4" stroke="#002755" stroke-width="2"/>
<path d="M333.974 312C333.974 313.672 335.329 315.027 337 315.027H345C346.672 315.027 348.027 313.672 348.027 312V308C348.027 306.328 346.672 304.973 345 304.973H337C335.329 304.973 333.974 306.328 333.974 308V312Z" fill="#002755" stroke="#002755" stroke-width="1.94654"/>
<path d="M352.974 328C352.974 329.672 354.329 331.027 356 331.027H360C361.672 331.027 363.027 329.672 363.027 328V324C363.027 322.328 361.672 320.973 360 320.973H356C354.329 320.973 352.974 322.328 352.974 324V328Z" fill="#002755" stroke="#002755" stroke-width="1.94654"/>
<path d="M353 312C353 313.657 354.344 315 356 315H360C361.657 315 363 313.657 363 312V308C363 306.343 361.657 305 360 305H356C354.344 305 353 306.343 353 308V312Z" fill="#0068E4" stroke="#002755" stroke-width="2"/>
<circle cx="290.75" cy="297.91" r="16" transform="rotate(15 290.75 297.91)" fill="#002755"/>
<path fill-rule="evenodd" clip-rule="evenodd" d="M206.801 397.558C202.888 340.539 247.899 299.34 288.612 290.139C292.921 289.165 297.204 291.869 298.178 296.179C299.152 300.488 296.448 304.771 292.139 305.745C257.266 313.627 219.512 349.075 222.763 396.463C223.066 400.871 219.737 404.69 215.329 404.992C210.922 405.294 207.103 401.966 206.801 397.558Z" fill="#A4CDFF"/>
<path fill-rule="evenodd" clip-rule="evenodd" d="M288.612 290.139C247.899 299.34 202.889 340.539 206.801 397.558C207.103 401.966 210.922 405.294 215.33 404.992C215.439 404.984 215.548 404.975 215.656 404.963C214.602 403.71 213.922 402.124 213.802 400.365C209.89 343.346 254.9 302.147 295.613 292.946C295.91 292.879 296.207 292.829 296.503 292.796C294.638 290.58 291.631 289.456 288.612 290.139Z" fill="#80B9FF"/>
<path d="M207.798 397.49C203.928 341.074 248.482 300.233 288.832 291.114C292.603 290.262 296.351 292.628 297.203 296.399C298.055 300.17 295.689 303.918 291.918 304.77C256.678 312.734 218.473 348.544 221.765 396.532C222.03 400.389 219.118 403.73 215.261 403.994C211.404 404.259 208.063 401.347 207.798 397.49Z" stroke="#002755" stroke-width="2" stroke-linecap="round" stroke-linejoin="round"/>
<path d="M214.782 397.011C213.97 385.174 215.47 374.049 218.716 363.825" stroke="#002755" stroke-width="16" stroke-linecap="round"/>
<path d="M208.921 429.801C206.894 428.63 205.218 427.085 203.932 425.303C200.343 420.331 199.778 413.518 203.043 407.864C207.477 400.183 217.299 397.551 224.979 401.986C230.756 405.321 233.676 411.702 232.884 417.928C232.622 419.981 231.957 422.018 230.857 423.923" stroke="#002755" stroke-width="11.6792" stroke-linecap="round"/>
<path d="M299 271C299 268.239 301.239 266 304 266H340C342.762 266 345 268.239 345 271C345 273.761 342.762 276 340 276H304C301.239 276 299 273.761 299 271Z" fill="#FFBB33" stroke="#002755" stroke-width="2"/>
<path fill-rule="evenodd" clip-rule="evenodd" d="M304 267C301.791 267 300 268.791 300 271C300 273.209 301.791 275 304 275H312C309.791 275 308 273.209 308 271C308 268.791 309.791 267 312 267H304Z" fill="#FFBB33"/>
<path fill-rule="evenodd" clip-rule="evenodd" d="M304 267C301.791 267 300 268.791 300 271C300 273.209 301.791 275 304 275H312C309.791 275 308 273.209 308 271C308 268.791 309.791 267 312 267H304Z" fill="#002755" style="mix-blend-mode:overlay"/>
<path d="M229 203C229 168.206 257.206 140 292 140H343C377.794 140 406 168.206 406 203C406 237.794 377.794 266 343 266H292C257.206 266 229 237.794 229 203Z" fill="#C8E1FF" stroke="#002755" stroke-width="2"/>
<path d="M306.974 243C306.974 234.701 313.701 227.973 322 227.973C330.3 227.973 337.027 234.701 337.027 243V266.027H306.974V243Z" fill="#A4CDFF" stroke="#002755" stroke-width="1.94654"/>
<path fill-rule="evenodd" clip-rule="evenodd" d="M322 227C313.164 227 306 234.163 306 243V254.311C308.035 253.374 310.3 252.851 312.687 252.851C320.898 252.851 327.664 259.035 328.581 267H338V243C338 234.163 330.837 227 322 227Z" fill="#80B9FF"/>
<path d="M307 243C307 234.716 313.716 228 322 228C330.285 228 337 234.716 337 243V266H307V243Z" stroke="#002755" stroke-width="2"/>
<path d="M390.027 222C390.027 226.104 386.948 229.488 382.974 229.968L382.974 200.032C386.948 200.512 390.027 203.896 390.027 208L390.027 222Z" fill="#002755" stroke="#002755" stroke-width="1.94654"/>
<path d="M257 203C257 185.879 270.88 172 288 172H352C369.121 172 383 185.879 383 203V227C383 244.121 369.121 258 352 258H288C270.88 258 257 244.121 257 227V203Z" fill="#A4CDFF" stroke="#002755" stroke-width="2"/>
<path d="M319 156C319 155.448 319.448 155 320 155C320.552 155 321 155.448 321 156V173H319V156Z" fill="#002755"/>
<circle cx="320" cy="155" r="7.02673" fill="#002755" stroke="#002755" stroke-width="1.94654"/>
<path fill-rule="evenodd" clip-rule="evenodd" d="M348.122 229.034C349.871 231.994 348.926 235.833 346.012 237.609C342.621 239.677 338.258 241 332.886 241C327.52 241 323.189 239.678 319.854 237.525C316.986 235.674 316.138 231.812 317.961 228.899C319.783 225.986 323.586 225.125 326.455 226.976C327.574 227.698 329.553 228.501 332.886 228.501C336.214 228.501 338.355 227.699 339.679 226.892C342.592 225.116 346.373 226.075 348.122 229.034Z" fill="#80B9FF"/>
<path fill-rule="evenodd" clip-rule="evenodd" d="M347.122 231.034C348.871 233.994 347.927 237.833 345.013 239.609C341.621 241.677 337.259 243 331.887 243C326.52 243 322.189 241.678 318.854 239.525C315.986 237.674 315.138 233.812 316.961 230.899C318.784 227.986 322.587 227.125 325.455 228.976C326.575 229.698 328.554 230.501 331.887 230.501C335.215 230.501 337.355 229.699 338.679 228.892C341.593 227.116 345.373 228.075 347.122 231.034Z" fill="#002755"/>
<rect width="40" height="40" rx="20" transform="matrix(1 0 0 -1 288 222)" fill="#80B9FF"/>
<rect x="1" y="-1" width="38" height="38" rx="19" transform="matrix(1 0 0 -1 286 222)" fill="white" stroke="#002755" stroke-width="2"/>
<path d="M312 195C312 193.895 312.896 193 314 193C315.105 193 316 193.895 316 195V203C316 204.105 315.105 205 314 205C312.896 205 312 204.105 312 203V195Z" fill="#002755"/>
<path fill-rule="evenodd" clip-rule="evenodd" d="M289 171C271.327 171 257 185.327 257 203V227C257 244.673 271.327 259 289 259H305C287.327 259 273 244.673 273 227V203C273 185.327 287.327 171 305 171H289Z" fill="#80B9FF"/>
<path d="M367.739 244.941C371.698 242.328 375.363 236.687 375.142 232" stroke="white" stroke-opacity="0.4" stroke-width="4" stroke-linecap="round" stroke-linejoin="round" style="mix-blend-mode:overlay"/>
<rect width="40" height="40" rx="20" transform="matrix(1 0 0 -1 338 222)" fill="#80B9FF"/>
<rect x="1" y="-1" width="38" height="38" rx="19" transform="matrix(1 0 0 -1 336 222)" fill="white" stroke="#002755" stroke-width="2"/>
<path d="M362 196C362 194.895 362.896 194 364 194C365.105 194 366 194.895 366 196V204C366 205.105 365.105 206 364 206C362.896 206 362 205.105 362 204V196Z" fill="#002755"/>
<path d="M257 203C257 185.879 270.88 172 288 172H352C369.121 172 383 185.879 383 203V227C383 244.121 369.121 258 352 258H288C270.88 258 257 244.121 257 227V203Z" stroke="#002755" stroke-width="2"/>
<path d="M244 207C244 200.373 249.373 195 256 195H260C266.628 195 272 200.373 272 207V223C272 229.627 266.628 235 260 235H256C249.373 235 244 229.627 244 223V207Z" fill="#002755"/>
<path d="M248 207C248 204.791 249.791 203 252 203C254.21 203 256 204.791 256 207V223C256 225.209 254.21 227 252 227C249.791 227 248 225.209 248 223V207Z" fill="#003E88"/>
</g>
<path d="M394.883 183.327C395.255 184.368 394.713 185.512 393.673 185.883C392.632 186.255 391.488 185.713 391.117 184.673L394.883 183.327ZM356.693 154.976C355.601 154.806 354.854 153.784 355.024 152.693C355.194 151.601 356.216 150.854 357.307 151.024L356.693 154.976ZM391.117 184.673C386.304 171.198 373.81 157.639 356.693 154.976L357.307 151.024C376.19 153.961 389.696 168.802 394.883 183.327L391.117 184.673Z" fill="white" fill-opacity="0.6"/>
<circle r="16" transform="matrix(-1 0 0 1 612 488)" fill="#00D68F"/>
<path fill-rule="evenodd" clip-rule="evenodd" d="M596 488C596 496.837 603.164 504 612 504H612.001V500H607C605.895 500 605 499.105 605 498C605 496.895 605.895 496 607 496H612.001V492H604C602.895 492 602 491.105 602 490C602 488.895 602.895 488 604 488H612.001V484H609C607.896 484 607 483.105 607 482C607 480.895 607.896 480 609 480H612.001V476.001H612H611C609.895 476.001 609 475.105 609 474.001C609 473.081 609.621 472.306 610.466 472.073C602.349 472.845 596 479.681 596 488ZM612 472.001L612.035 472.001C620.131 472.018 626.815 478.048 627.859 485.863C626.814 478.037 620.112 472 612 472C611.957 472 611.913 472 611.87 472.001H612Z" fill="#00B076"/>
<rect width="13" height="4" rx="2" transform="matrix(-1 0 0 1 617 476)" fill="#00B076"/>
<rect width="20" height="4" rx="2" transform="matrix(-1 0 0 1 620 484)" fill="#00B076"/>
<rect width="13" height="4" rx="2" transform="matrix(-1 0 0 1 616 492)" fill="#00B076"/>
<rect width="6" height="4" rx="2" transform="matrix(-1 0 0 1 615 500)" fill="#00B076"/>
<circle r="40" transform="matrix(-1 0 0 1 584 46)" fill="#BB6BD9"/>
<circle r="40" transform="matrix(-1 0 0 1 584 46)" fill="white" fill-opacity="0.2"/>
<path fill-rule="evenodd" clip-rule="evenodd" d="M584 86C561.909 86 544 68.0914 544 46C544 26.3569 558.16 10.0208 576.828 6.64119C575.728 7.35387 575 8.59238 575 10.0009C575 12.2101 576.791 14.0009 579 14.0009H584.001V22H572C569.791 22 568 23.7909 568 26C568 28.2091 569.791 30 572 30H584.001V38H579.001C576.791 38 575.001 39.7909 575.001 42C575.001 44.2091 576.791 46 579.001 46H584.001V54H564C561.791 54 560 55.7909 560 58C560 60.2091 561.791 62 564 62H584.001V70H578C575.791 70 574 71.7909 574 74C574 76.2091 575.791 78 578 78H584.001V86H584ZM584.001 6.00093V6.00078L584.111 6.00093H584.276C584.184 6.00031 584.092 6 584 6C583.908 6 583.816 6.00031 583.725 6.00093H584.001ZM608.006 14.0009H608.005C616.371 20.2865 622.192 29.7763 623.646 40.648C622.192 29.7764 616.371 20.2866 608.006 14.0009Z" fill="#B55ED6"/>
<rect width="32" height="8" rx="4" transform="matrix(-1 0 0 1 600 14)" fill="#B55ED6"/>
<rect width="19" height="8" rx="4" transform="matrix(-1 0 0 1 587 30)" fill="#B55ED6"/>
<rect width="35" height="8" rx="4" transform="matrix(-1 0 0 1 592 46)" fill="#B55ED6"/>
<rect width="33" height="8" rx="4" transform="matrix(-1 0 0 1 608 62)" fill="#B55ED6"/>
<rect width="13" height="8" rx="4" transform="matrix(-1 0 0 1 591 78)" fill="#B55ED6"/>
<circle cx="624" cy="6" r="6" fill="#BB6BD9"/>
<circle cx="624" cy="6" r="6" fill="white" fill-opacity="0.2"/>
<circle r="40" transform="matrix(-0.965926 0.258819 0.258819 0.965926 176 599)" fill="#D1D4D7"/>
<path fill-rule="evenodd" clip-rule="evenodd" d="M186.353 637.636C165.014 643.354 143.081 630.691 137.363 609.352C132.279 590.378 141.728 570.934 158.886 562.838C158.007 563.811 157.625 565.196 157.989 566.556C158.561 568.69 160.754 569.957 162.888 569.385L167.718 568.091L169.789 575.817L158.197 578.923C156.063 579.495 154.797 581.688 155.369 583.822C155.94 585.956 158.134 587.222 160.268 586.651L171.859 583.545L173.93 591.272L169.1 592.566C166.966 593.138 165.7 595.331 166.272 597.465C166.844 599.599 169.037 600.865 171.171 600.293L176 598.999L178.071 606.727L158.752 611.903C156.618 612.475 155.352 614.668 155.923 616.802C156.495 618.936 158.689 620.203 160.822 619.631L180.141 614.454L182.212 622.182L176.416 623.735C174.282 624.306 173.016 626.5 173.587 628.634C174.159 630.768 176.353 632.034 178.486 631.462L184.283 629.909L186.353 637.636L186.353 637.636ZM165.648 560.363L165.648 560.363L165.754 560.335L165.914 560.292C165.825 560.315 165.736 560.339 165.647 560.362C165.559 560.386 165.47 560.41 165.381 560.435L165.648 560.363ZM190.905 561.878L190.905 561.878C200.612 565.784 208.691 573.444 212.909 583.569C208.691 573.444 200.613 565.784 190.905 561.878Z" fill="#A8AEB2"/>
<rect width="32" height="8" rx="4" transform="matrix(-0.965926 0.258819 0.258819 0.965926 183.173 563.949)" fill="#A8AEB2"/>
<rect width="19" height="8" rx="4" transform="matrix(-0.965926 0.258819 0.258819 0.965926 174.757 582.768)" fill="#A8AEB2"/>
<rect width="35" height="8" rx="4" transform="matrix(-0.965926 0.258819 0.258819 0.965926 183.727 596.929)" fill="#A8AEB2"/>
<rect width="33" height="8" rx="4" transform="matrix(-0.965926 0.258819 0.258819 0.965926 203.323 608.243)" fill="#A8AEB2"/>
<rect width="13" height="8" rx="4" transform="matrix(-0.965926 0.258819 0.258819 0.965926 191.044 628.097)" fill="#A8AEB2"/>
<circle r="6" transform="matrix(-0.965926 0.258819 0.258819 0.965926 191.695 580.3)" fill="#A8AEB2"/>
<circle r="3" transform="matrix(-0.965926 0.258819 0.258819 0.965926 203.235 588.596)" fill="#A8AEB2"/>
<path d="M525.033 136.736C528.33 135.363 531.637 138.67 530.264 141.967L528.423 146.385C524.526 155.738 524.526 166.262 528.423 175.615L530.264 180.033C531.637 183.33 528.33 186.637 525.033 185.264L520.615 183.423C511.262 179.526 500.738 179.526 491.385 183.423L486.967 185.264C483.67 186.637 480.363 183.33 481.736 180.033L483.577 175.615C487.474 166.262 487.474 155.738 483.577 146.385L481.736 141.967C480.363 138.67 483.67 135.363 486.967 136.736L491.385 138.577C500.738 142.474 511.262 142.474 520.615 138.577L525.033 136.736Z" fill="#FFBB33"/>
<circle cx="12" cy="396" r="10.2572" stroke="#FF3D71" stroke-width="3.4855"/>
<circle cx="110" cy="369" r="12" fill="#00D68F"/>
<circle cx="123" cy="565" r="6" fill="#FF3D71"/>
<path fill-rule="evenodd" clip-rule="evenodd" d="M11 144C11 141.791 12.7909 140 15 140H65C76.0457 140 85 148.954 85 160C85 171.046 76.0457 180 65 180H33C30.7909 180 29 178.209 29 176C29 173.791 30.7909 172 33 172H48.9985C48.972 171.965 48.9456 171.929 48.9193 171.894C50.6853 171.478 52 169.893 52 168C52 165.791 50.2091 164 48 164H45.4001H15C12.7909 164 11 162.209 11 160C11 157.791 12.7909 156 15 156H45.4001H54C56.2091 156 58 154.209 58 152C58 149.791 56.2091 148 54 148H48.9985H15C12.7909 148 11 146.209 11 144ZM9 176C9 173.791 10.7909 172 13 172H17C19.2091 172 21 173.791 21 176C21 178.209 19.2091 180 17 180H13C10.7909 180 9 178.209 9 176Z" fill="#FF3D71"/>
<rect x="71" y="156" width="8" height="8" rx="4" fill="#BB3055"/>
<rect x="67" y="150" width="4" height="4" rx="2" fill="#BB3055"/>
<path fill-rule="evenodd" clip-rule="evenodd" d="M122.485 272.485C120.923 274.048 120.923 276.58 122.485 278.142L125.314 280.971L122.485 283.799C120.923 285.361 120.923 287.894 122.485 289.456C124.047 291.018 126.58 291.018 128.142 289.456L130.971 286.628L133.799 289.456C135.361 291.018 137.894 291.018 139.456 289.456C141.018 287.894 141.018 285.361 139.456 283.799L136.627 280.971L139.456 278.142C141.018 276.58 141.018 274.048 139.456 272.485C137.894 270.923 135.361 270.923 133.799 272.485L130.971 275.314L128.142 272.485C126.58 270.923 124.047 270.923 122.485 272.485Z" fill="#3993FF"/>
<path fill-rule="evenodd" clip-rule="evenodd" d="M536 304C533.791 304 532 305.791 532 308V320H520C517.791 320 516 321.791 516 324C516 326.209 517.791 328 520 328H532V340C532 342.209 533.791 344 536 344C538.209 344 540 342.209 540 340V328H552C554.209 328 556 326.209 556 324C556 321.791 554.209 320 552 320H540V308C540 305.791 538.209 304 536 304Z" fill="#3993FF"/>
<circle cx="167" cy="58" r="4" fill="#D1D4D7"/>
<circle cx="189" cy="40" r="2" fill="#D1D4D7"/>
<circle cx="189" cy="68" r="2" fill="#D1D4D7"/>
</svg>
